<svg width="192" height="192" viewBox="0 0 192 192" xmlns="http://www.w3.org/2000/svg">
  <defs>
    <linearGradient id="grad192" x1="0%" y1="0%" x2="100%" y2="100%">
      <stop offset="0%" style="stop-color:#667eea;stop-opacity:1" />
      <stop offset="100%" style="stop-color:#764ba2;stop-opacity:1" />
    </linearGradient>
  </defs>
  
  <!-- Background circle -->
  <circle cx="96" cy="96" r="90" fill="url(#grad192)"/>
  
  <!-- FL lettermark with chain links -->
  <g transform="translate(96, 96)" stroke="white" stroke-width="12" fill="none" stroke-linecap="round">
    <!-- F with connection points -->
    <path d="M -40,-50 L -40,-10 M -40,-30 L -16,-30"/>
    <circle cx="-40" cy="-50" r="7" fill="white"/>
    <circle cx="-40" cy="-10" r="7" fill="white"/>
    <circle cx="-16" cy="-30" r="7" fill="white"/>
    
    <!-- Connection -->
    <line x1="-10" y1="-20" x2="10" y2="-20" stroke="white" stroke-width="6" stroke-dasharray="2,8" opacity="0.5"/>
    
    <!-- L with connection points -->
    <path d="M 16,-50 L 16,10 L 40,10"/>
    <circle cx="16" cy="-50" r="7" fill="white"/>
    <circle cx="16" cy="10" r="7" fill="white"/>
    <circle cx="40" cy="10" r="7" fill="white"/>
  </g>
  
  <!-- Search magnifying glass -->
  <g transform="translate(96, 136)">
    <circle cx="0" cy="0" r="16" stroke="#fbbf24" stroke-width="6" fill="none"/>
    <line x1="11" y1="11" x2="20" y2="20" stroke="#fbbf24" stroke-width="6" stroke-linecap="round"/>
  </g>
  
  <!-- SA flag colors accent -->
  <rect x="72" y="170" width="14" height="8" fill="#007A4D" rx="2"/>
  <rect x="90" y="170" width="14" height="8" fill="#FFB612" rx="2"/>
  <rect x="108" y="170" width="14" height="8" fill="#DE3831" rx="2"/>
</svg>