<svg width="180" height="180" viewBox="0 0 180 180" xmlns="http://www.w3.org/2000/svg">
  <defs>
    <linearGradient id="grad180" x1="0%" y1="0%" x2="100%" y2="100%">
      <stop offset="0%" style="stop-color:#667eea;stop-opacity:1" />
      <stop offset="100%" style="stop-color:#764ba2;stop-opacity:1" />
    </linearGradient>
  </defs>
  
  <!-- Background rounded square for iOS -->
  <rect x="0" y="0" width="180" height="180" rx="36" fill="url(#grad180)"/>
  
  <!-- FL lettermark with chain links -->
  <g transform="translate(90, 90)" stroke="white" stroke-width="11" fill="none" stroke-linecap="round">
    <!-- F with connection points -->
    <path d="M -38,-46 L -38,-9 M -38,-28 L -15,-28"/>
    <circle cx="-38" cy="-46" r="6.5" fill="white"/>
    <circle cx="-38" cy="-9" r="6.5" fill="white"/>
    <circle cx="-15" cy="-28" r="6.5" fill="white"/>
    
    <!-- Connection -->
    <line x1="-9" y1="-18" x2="9" y2="-18" stroke="white" stroke-width="5.5" stroke-dasharray="2,7" opacity="0.5"/>
    
    <!-- L with connection points -->
    <path d="M 15,-46 L 15,9 L 38,9"/>
    <circle cx="15" cy="-46" r="6.5" fill="white"/>
    <circle cx="15" cy="9" r="6.5" fill="white"/>
    <circle cx="38" cy="9" r="6.5" fill="white"/>
  </g>
  
  <!-- Search magnifying glass -->
  <g transform="translate(90, 127)">
    <circle cx="0" cy="0" r="15" stroke="#fbbf24" stroke-width="5.5" fill="none"/>
    <line x1="10.5" y1="10.5" x2="19" y2="19" stroke="#fbbf24" stroke-width="5.5" stroke-linecap="round"/>
  </g>
  
  <!-- SA flag colors accent -->
  <rect x="67" y="159" width="13" height="7.5" fill="#007A4D" rx="1.5"/>
  <rect x="84" y="159" width="13" height="7.5" fill="#FFB612" rx="1.5"/>
  <rect x="101" y="159" width="13" height="7.5" fill="#DE3831" rx="1.5"/>
</svg>