<svg width="512" height="512" viewBox="0 0 512 512" xmlns="http://www.w3.org/2000/svg">
  <defs>
    <linearGradient id="grad512" x1="0%" y1="0%" x2="100%" y2="100%">
      <stop offset="0%" style="stop-color:#667eea;stop-opacity:1" />
      <stop offset="100%" style="stop-color:#764ba2;stop-opacity:1" />
    </linearGradient>
  </defs>
  
  <!-- Background circle -->
  <circle cx="256" cy="256" r="240" fill="url(#grad512)"/>
  
  <!-- FL lettermark with chain links -->
  <g transform="translate(256, 256)" stroke="white" stroke-width="24" fill="none" stroke-linecap="round">
    <!-- F with connection points -->
    <path d="M -100,-130 L -100,-30 M -100,-80 L -40,-80"/>
    <circle cx="-100" cy="-130" r="14" fill="white"/>
    <circle cx="-100" cy="-30" r="14" fill="white"/>
    <circle cx="-40" cy="-80" r="14" fill="white"/>
    
    <!-- Connection -->
    <line x1="-25" y1="-50" x2="25" y2="-50" stroke="white" stroke-width="12" stroke-dasharray="4,16" opacity="0.5"/>
    
    <!-- L with connection points -->
    <path d="M 40,-130 L 40,30 L 100,30"/>
    <circle cx="40" cy="-130" r="14" fill="white"/>
    <circle cx="40" cy="30" r="14" fill="white"/>
    <circle cx="100" cy="30" r="14" fill="white"/>
  </g>
  
  <!-- Search magnifying glass -->
  <g transform="translate(256, 370)">
    <circle cx="0" cy="0" r="38" stroke="#fbbf24" stroke-width="14" fill="none"/>
    <line x1="27" y1="27" x2="50" y2="50" stroke="#fbbf24" stroke-width="14" stroke-linecap="round"/>
  </g>
  
  <!-- SA flag colors accent -->
  <rect x="196" y="450" width="32" height="18" fill="#007A4D" rx="4"/>
  <rect x="236" y="450" width="32" height="18" fill="#FFB612" rx="4"/>
  <rect x="276" y="450" width="32" height="18" fill="#DE3831" rx="4"/>
</svg>